<svg width="18" height="21" viewBox="0 0 18 21" fill="none" xmlns="http://www.w3.org/2000/svg">
<path d="M13.1429 6.5625V7.22376C13.0498 7.21017 12.9544 7.20312 12.8571 7.20312C12.7599 7.20312 12.6645 7.21017 12.5714 7.22376V6.5625V5.25C12.5714 3.26981 10.9895 1.625 9 1.625C7.01048 1.625 5.42857 3.26981 5.42857 5.25V6.5625V7.22376C5.33551 7.21017 5.24013 7.20312 5.14286 7.20312C5.04558 7.20312 4.95021 7.21017 4.85714 7.22376V6.5625V5.25C4.85714 2.88786 6.73582 1 9 1C11.2641 1 13.1429 2.88787 13.1429 5.25V6.5625ZM14.8214 9.1875C14.8214 8.52418 14.4948 7.92483 13.9857 7.5625H14.1429H17V17.7188C17 18.9982 15.9893 20 14.7857 20H3.21429C2.0107 20 1 18.9982 1 17.7188V7.5625H3.85714H4.01426C3.50518 7.92483 3.17857 8.52418 3.17857 9.1875C3.17857 10.2639 4.03867 11.1719 5.14286 11.1719C6.24705 11.1719 7.10714 10.2639 7.10714 9.1875C7.10714 8.52418 6.78053 7.92483 6.27145 7.5625H6.42857H11.5714H11.7285C11.2195 7.92483 10.8929 8.52419 10.8929 9.1875C10.8929 10.2639 11.753 11.1719 12.8571 11.1719C13.9613 11.1719 14.8214 10.2639 14.8214 9.1875Z" stroke="#0A1826" stroke-width="2"/>
</svg>
