<svg width="40" height="39" viewBox="0 0 40 39" fill="none" xmlns="http://www.w3.org/2000/svg">
<path d="M20.0045 9.50089C14.3291 9.50089 9.75125 13.9652 9.75125 19.5C9.75125 25.0348 14.3291 29.4991 20.0045 29.4991C25.6799 29.4991 30.2577 25.0348 30.2577 19.5C30.2577 13.9652 25.6799 9.50089 20.0045 9.50089ZM20.0045 26.0007C16.3369 26.0007 13.3385 23.0854 13.3385 19.5C13.3385 15.9146 16.3279 12.9993 20.0045 12.9993C23.681 12.9993 26.6704 15.9146 26.6704 19.5C26.6704 23.0854 23.6721 26.0007 20.0045 26.0007V26.0007ZM33.0686 9.09188C33.0686 10.3885 31.9978 11.4241 30.6771 11.4241C29.3475 11.4241 28.2856 10.3798 28.2856 9.09188C28.2856 7.80392 29.3564 6.75962 30.6771 6.75962C31.9978 6.75962 33.0686 7.80392 33.0686 9.09188ZM39.8595 11.4589C39.7078 8.33477 38.976 5.56739 36.6291 3.28735C34.2911 1.00731 31.4534 0.293707 28.2499 0.137063C24.9481 -0.0456878 15.0519 -0.0456878 11.7501 0.137063C8.55549 0.285005 5.71779 0.998605 3.37089 3.27865C1.02398 5.55869 0.301171 8.32606 0.140547 11.4502C-0.0468489 14.6701 -0.0468489 24.3212 0.140547 27.5411C0.292248 30.6652 1.02398 33.4326 3.37089 35.7127C5.71779 37.9927 8.54657 38.7063 11.7501 38.8629C15.0519 39.0457 24.9481 39.0457 28.2499 38.8629C31.4534 38.715 34.2911 38.0014 36.6291 35.7127C38.9671 33.4326 39.6988 30.6652 39.8595 27.5411C40.0469 24.3212 40.0469 14.6788 39.8595 11.4589V11.4589ZM35.594 30.9959C34.8979 32.7016 33.5505 34.0157 31.7925 34.7032C29.1601 35.7214 22.9136 35.4864 20.0045 35.4864C17.0954 35.4864 10.8399 35.7127 8.2164 34.7032C6.46737 34.0244 5.11991 32.7103 4.41495 30.9959C3.37089 28.4287 3.61182 22.337 3.61182 19.5C3.61182 16.663 3.37981 10.5626 4.41495 8.00407C5.11099 6.29839 6.45845 4.98432 8.2164 4.29683C10.8489 3.27865 17.0954 3.51361 20.0045 3.51361C22.9136 3.51361 29.169 3.28735 31.7925 4.29683C33.5416 4.97562 34.889 6.28969 35.594 8.00407C36.638 10.5713 36.3971 16.663 36.3971 19.5C36.3971 22.337 36.638 28.4374 35.594 30.9959Z" fill="black"/>
</svg>
