<svg width="23" height="22" viewBox="0 0 23 22" fill="none" xmlns="http://www.w3.org/2000/svg">
<path d="M11.7205 5.11758C8.59728 5.11758 6.07809 7.52227 6.07809 10.5035C6.07809 13.4848 8.59728 15.8895 11.7205 15.8895C14.8437 15.8895 17.3629 13.4848 17.3629 10.5035C17.3629 7.52227 14.8437 5.11758 11.7205 5.11758ZM11.7205 14.0051C9.70219 14.0051 8.05219 12.4348 8.05219 10.5035C8.05219 8.57227 9.69728 7.00195 11.7205 7.00195C13.7437 7.00195 15.3888 8.57227 15.3888 10.5035C15.3888 12.4348 13.7388 14.0051 11.7205 14.0051V14.0051ZM18.9098 4.89727C18.9098 5.5957 18.3205 6.15352 17.5937 6.15352C16.862 6.15352 16.2776 5.59102 16.2776 4.89727C16.2776 4.20352 16.8669 3.64102 17.5937 3.64102C18.3205 3.64102 18.9098 4.20352 18.9098 4.89727ZM22.6468 6.17227C22.5633 4.48945 22.1607 2.99883 20.8691 1.7707C19.5825 0.542578 18.0209 0.158203 16.258 0.0738281C14.441 -0.0246094 8.99505 -0.0246094 7.17809 0.0738281C5.42006 0.153516 3.85845 0.537891 2.56693 1.76602C1.27542 2.99414 0.87765 4.48477 0.789258 6.16758C0.686133 7.90195 0.686133 13.1004 0.789258 14.8348C0.87274 16.5176 1.27542 18.0082 2.56693 19.2363C3.85845 20.4645 5.41514 20.8488 7.17809 20.9332C8.99505 21.0316 14.441 21.0316 16.258 20.9332C18.0209 20.8535 19.5825 20.4691 20.8691 19.2363C22.1557 18.0082 22.5584 16.5176 22.6468 14.8348C22.7499 13.1004 22.7499 7.90664 22.6468 6.17227V6.17227ZM20.2995 16.6957C19.9165 17.6145 19.1749 18.3223 18.2075 18.6926C16.7589 19.241 13.3214 19.1145 11.7205 19.1145C10.1196 19.1145 6.6772 19.2363 5.23345 18.6926C4.27095 18.327 3.52943 17.6191 3.14149 16.6957C2.56693 15.3129 2.69952 12.0316 2.69952 10.5035C2.69952 8.97539 2.57184 5.68945 3.14149 4.31133C3.52452 3.39258 4.26604 2.68477 5.23345 2.31445C6.68211 1.76602 10.1196 1.89258 11.7205 1.89258C13.3214 1.89258 16.7638 1.7707 18.2075 2.31445C19.17 2.68008 19.9116 3.38789 20.2995 4.31133C20.8741 5.69414 20.7415 8.97539 20.7415 10.5035C20.7415 12.0316 20.8741 15.3176 20.2995 16.6957Z" fill="white"/>
</svg>
