<svg width="11" height="16" viewBox="0 0 11 16" fill="none" xmlns="http://www.w3.org/2000/svg">
<path d="M1.644 4.0021C1.748 4.0021 1.824 4.0161 1.872 4.0441C1.924 4.0681 1.982 4.1201 2.046 4.2001L7.026 10.6801C7.014 10.5761 7.006 10.4761 7.002 10.3801C6.998 10.2801 6.996 10.1841 6.996 10.0921V4.0021H8.016V12.6001H7.428C7.336 12.6001 7.258 12.5841 7.194 12.5521C7.134 12.5201 7.074 12.4661 7.014 12.3901L2.04 5.9161C2.048 6.0161 2.054 6.1141 2.058 6.2101C2.062 6.3061 2.064 6.3941 2.064 6.4741V12.6001H1.044V4.0021H1.644Z" fill="black"/>
<rect y="7.2002" width="9.9" height="1.1" fill="black"/>
<rect y="9.40015" width="9.9" height="1.1" fill="black"/>
</svg>
