<svg width="20" height="22" viewBox="0 0 20 22" fill="none" xmlns="http://www.w3.org/2000/svg">
<path d="M14.1248 14.1464L13.5634 14.9361H13.5763L12.8 15.6037C11.5047 16.7175 9.88396 17.3733 8.12559 17.3733C3.95683 17.3733 0.5 13.6429 0.5 8.93663C0.5 4.23031 3.95683 0.5 8.12559 0.5C12.2944 0.5 15.7512 4.23031 15.7512 8.93663C15.7512 10.9084 15.1426 12.7147 14.1248 14.1464ZM13.626 14.9361H14.5323H15.1691C15.2722 14.9361 15.3781 14.9796 15.4632 15.0732L19.3563 19.3548C19.3565 19.3551 19.3568 19.3554 19.357 19.3556C19.5484 19.5693 19.5479 19.9318 19.3542 20.1448L18.2486 21.3607L18.2468 21.3627C18.0832 21.5446 17.8341 21.5476 17.6642 21.3607L13.7694 17.0772C13.6825 16.9817 13.626 16.8418 13.626 16.6831V15.9828V14.9361ZM2.62523 8.93663C2.62523 12.2091 5.04407 14.9361 8.12559 14.9361C11.2115 14.9361 13.626 12.2043 13.626 8.93663C13.626 5.66416 11.2071 2.93716 8.12559 2.93716C5.03968 2.93716 2.62523 5.66898 2.62523 8.93663Z" fill="#0A1826" stroke="#0A1826"/>
</svg>
