<svg width="23" height="20" viewBox="0 0 23 20" fill="none" xmlns="http://www.w3.org/2000/svg">
<path d="M20.4627 4.85784C20.4766 5.07103 20.4766 5.28427 20.4766 5.49745C20.4766 12 15.9399 19.4924 7.64798 19.4924C5.0934 19.4924 2.72032 18.6852 0.724121 17.2843C1.08708 17.3299 1.43603 17.3452 1.81295 17.3452C3.92078 17.3452 5.86116 16.5685 7.41066 15.2437C5.42843 15.198 3.76725 13.7817 3.19491 11.8325C3.47412 11.8781 3.75329 11.9086 4.04646 11.9086C4.45127 11.9086 4.85612 11.8477 5.233 11.7411C3.16702 11.2842 1.61748 9.30455 1.61748 6.91369V6.8528C2.21771 7.21828 2.91574 7.4467 3.65554 7.47713C2.44107 6.59386 1.64541 5.08627 1.64541 3.38067C1.64541 2.46698 1.86872 1.62942 2.25961 0.898453C4.47916 3.88322 7.81547 5.83242 11.5565 6.04566C11.4868 5.68017 11.4449 5.2995 11.4449 4.91878C11.4449 2.20809 13.455 0 15.9537 0C17.252 0 18.4245 0.593906 19.2482 1.5533C20.2672 1.34011 21.2443 0.928922 22.1098 0.365484C21.7748 1.50764 21.0629 2.46703 20.1276 3.07613C21.035 2.96958 21.9144 2.69541 22.724 2.31473C22.1099 3.28931 21.3421 4.1573 20.4627 4.85784Z" fill="white"/>
</svg>
