<svg width="22" height="16" viewBox="0 0 22 16" fill="none" xmlns="http://www.w3.org/2000/svg">
<path d="M21.5 8.16667V12.5H20H19.5V13C19.5 14.3839 18.3839 15.5 17 15.5C15.6161 15.5 14.5 14.3839 14.5 13V12.5H14H8H7.5V13C7.5 14.3839 6.38386 15.5 5 15.5C3.61614 15.5 2.5 14.3839 2.5 13V12.5H2H0.5V2C0.5 1.17614 1.17614 0.5 2 0.5H15.5V4V4.5H16H18.75L21.5 8.16667ZM18.8935 5.19151L18.7433 5H18.5H16H15.5V5.5V8V8.5H16H20.46H21.4873L20.8535 7.69151L18.8935 5.19151ZM3 13C3 14.1061 3.89386 15 5 15C6.10614 15 7 14.1061 7 13C7 11.8939 6.10614 11 5 11C3.89386 11 3 11.8939 3 13ZM15 13C15 14.1061 15.8939 15 17 15C18.1061 15 19 14.1061 19 13C19 11.8939 18.1061 11 17 11C15.8939 11 15 11.8939 15 13Z" stroke="#D88A83"/>
</svg>
