<svg width="34" height="36" viewBox="0 0 34 36" fill="none" xmlns="http://www.w3.org/2000/svg">
<path d="M17 29.25C24.6301 29.25 30.8125 22.7039 30.8125 14.625C30.8125 6.54609 24.6301 0 17 0C9.36992 0 3.1875 6.54609 3.1875 14.625C3.1875 22.7039 9.36992 29.25 17 29.25ZM15.5258 6.84844V5.66719C15.5258 5.02031 16.0172 4.5 16.6281 4.5H17.3652C17.9762 4.5 18.4676 5.02031 18.4676 5.66719V6.8625C19.4969 6.91875 20.493 7.29141 21.323 7.94531C21.6949 8.23359 21.7348 8.81016 21.4027 9.14766L20.3203 10.2375C20.068 10.4977 19.6895 10.5047 19.3906 10.3078C19.032 10.0688 18.6336 9.94922 18.2086 9.94922H15.6254C15.0277 9.94922 14.543 10.5258 14.543 11.2359C14.543 11.8125 14.875 12.3258 15.3465 12.4734L19.4836 13.7883C21.1902 14.3297 22.3855 16.0664 22.3855 18.0141C22.3855 20.4047 20.6324 22.3383 18.4609 22.4016V23.5828C18.4609 24.2297 17.9695 24.75 17.3586 24.75H16.6215C16.0105 24.75 15.5191 24.2297 15.5191 23.5828V22.3875C14.4898 22.3312 13.4937 21.9586 12.6637 21.3047C12.2918 21.0164 12.252 20.4398 12.584 20.1023L13.6664 19.0125C13.9187 18.7523 14.2973 18.7453 14.5961 18.9422C14.9547 19.1812 15.3531 19.3008 15.7781 19.3008H18.3613C18.959 19.3008 19.4437 18.7242 19.4437 18.0141C19.4437 17.4375 19.1117 16.9242 18.6402 16.7766L14.5031 15.4617C12.7965 14.9203 11.6012 13.1836 11.6012 11.2359C11.6078 8.84531 13.3543 6.91172 15.5258 6.84844ZM31.875 24.75H29.7168C28.4152 26.5781 26.7551 28.1039 24.8691 29.25H29.1059C29.4578 29.25 29.7434 29.5031 29.7434 29.8125V30.9375C29.7434 31.2469 29.4578 31.5 29.1059 31.5H4.8875C4.53555 31.5 4.25 31.2469 4.25 30.9375V29.8125C4.25 29.5031 4.53555 29.25 4.8875 29.25H9.12422C7.23828 28.1039 5.58477 26.5781 4.27656 24.75H2.125C0.949609 24.75 0 25.7555 0 27V33.75C0 34.9945 0.949609 36 2.125 36H31.875C33.0504 36 34 34.9945 34 33.75V27C34 25.7555 33.0504 24.75 31.875 24.75Z" fill="#D88A83"/>
</svg>
