<svg width="34" height="36" viewBox="0 0 34 36" fill="none" xmlns="http://www.w3.org/2000/svg">
<path d="M30.4554 17.9944L33.5091 14.83C34.4194 13.9175 33.995 12.296 32.801 11.9936L28.6406 10.8693L29.8134 6.50892C30.1448 5.25469 29.0279 4.07168 27.8437 4.42268L23.7269 5.66489L22.6655 1.25834C22.3846 0.0138828 20.836 -0.44125 19.9877 0.508249L17 3.76667L14.0125 0.50832C13.1738 -0.430421 11.6187 -0.00032039 11.3346 1.25841L10.2732 5.66496L6.15634 4.42275C4.97184 4.07161 3.85529 5.25504 4.18666 6.50899L5.35946 10.8694L1.1991 11.9937C0.00457978 12.2961 -0.419026 13.918 0.490874 14.83L3.54457 17.9944L0.490874 21.1587C-0.419425 22.0712 0.00504475 23.6927 1.19903 23.9951L5.35939 25.1194L4.18659 29.4798C3.85515 30.734 4.97211 31.917 6.15627 31.566L10.2731 30.3238L11.3345 34.7304C11.6293 36.0364 13.1737 36.4191 14.0123 35.4805L17 32.246L19.9876 35.4805C20.8177 36.4288 22.3774 36.0068 22.6654 34.7304L23.7269 30.3238L27.8437 31.566C29.0281 31.9172 30.1447 30.7337 29.8133 29.4798L28.6405 25.1194L32.8009 23.9951C33.9954 23.6926 34.419 22.0708 33.5091 21.1587L30.4554 17.9944Z" fill="#D88A83"/>
</svg>
