<svg width="34" height="36" viewBox="0 0 34 36" fill="none" xmlns="http://www.w3.org/2000/svg">
<path d="M28.658 0L34 11.25H28.0323L23.9476 0H28.658ZM21.1024 0L25.1872 11.25H8.81285L12.8976 0H21.1024ZM5.34201 0H10.0524L5.96771 11.25H0L5.34201 0ZM0 13.5H5.9441L13.2045 31.1977C13.2931 31.4156 13.0451 31.6125 12.9094 31.4297L0 13.5ZM8.74792 13.5H25.2521L17.1653 35.8734C17.1062 36.0422 16.8997 36.0422 16.8406 35.8734L8.74792 13.5ZM20.7955 31.1977L28.0559 13.5H34L21.0906 31.4227C20.9549 31.6125 20.7069 31.4156 20.7955 31.1977Z" fill="#D88A83"/>
</svg>
