<svg width="22" height="18" viewBox="0 0 22 18" fill="none" xmlns="http://www.w3.org/2000/svg">
<path d="M21.2761 2.81639C21.0362 1.7078 20.3293 0.834703 19.4319 0.538406C17.8052 0 11.2823 0 11.2823 0C11.2823 0 4.75946 0 3.13272 0.538406C2.23526 0.83475 1.52844 1.7078 1.28854 2.81639C0.852661 4.82578 0.852661 9.01819 0.852661 9.01819C0.852661 9.01819 0.852661 13.2106 1.28854 15.22C1.52844 16.3286 2.23526 17.1653 3.13272 17.4616C4.75946 18 11.2823 18 11.2823 18C11.2823 18 17.8051 18 19.4319 17.4616C20.3293 17.1653 21.0362 16.3286 21.2761 15.22C21.7119 13.2106 21.7119 9.01819 21.7119 9.01819C21.7119 9.01819 21.7119 4.82578 21.2761 2.81639ZM9.14895 12.8246V5.2118L14.6008 9.01828L9.14895 12.8246Z" fill="white"/>
</svg>
